<svg width="66" height="93" viewBox="0 0 66 93" fill="none" xmlns="http://www.w3.org/2000/svg">
<path d="M58.0175 37.6041L58.0057 37.6574V37.712V47.6988C58.0057 47.9961 57.8116 48.3659 57.292 48.6852C56.7761 49.0023 56.0443 49.1962 55.2557 49.1962C54.4672 49.1962 53.7354 49.0023 53.2194 48.6852C52.6999 48.3659 52.5057 47.9961 52.5057 47.6988V43.1049V42.1308L51.7142 42.6986L37.9342 52.5856L37.934 52.5858C37.5226 52.8813 36.9245 53.0966 36.2358 53.1666C35.5498 53.2363 34.8516 53.1536 34.2702 52.9419C34.27 52.9418 34.2697 52.9417 34.2695 52.9416L20.3936 47.8289L20.1408 47.7357L19.924 47.8957L5.46145 58.5616L5.46136 58.5617C5.21159 58.746 4.88509 58.9037 4.49939 59.0145C4.11458 59.1251 3.68966 59.1835 3.25622 59.1831H3.25512C2.5624 59.1839 1.90663 59.0348 1.40271 58.7782C1.12008 58.6342 0.903761 58.4659 0.754669 58.2921C0.606643 58.1196 0.531413 57.95 0.508193 57.7952C0.485321 57.6428 0.509459 57.4833 0.592663 57.3188C0.677621 57.1508 0.826254 56.9748 1.04999 56.8098L17.3 44.8256L17.3004 44.8253C17.7079 44.5242 18.3082 44.3026 19.0039 44.2291C19.697 44.1559 20.404 44.2386 20.9915 44.4533C20.9915 44.4533 20.9916 44.4533 20.9916 44.4533L35.0315 49.5866L35.2811 49.6778L35.4963 49.522L48.4963 40.1144L49.747 39.2093H48.2032H39.0057C38.2172 39.2093 37.4854 39.0154 36.9694 38.6983C36.4499 38.379 36.2557 38.0092 36.2557 37.712C36.2557 37.4147 36.4499 37.0449 36.9694 36.7256C37.4854 36.4085 38.2172 36.2146 39.0057 36.2146H55.1878C55.3772 36.2696 55.5438 36.3414 55.6825 36.4239L55.8007 36.4942H55.9382H56.5343C56.704 36.5329 56.8598 36.5854 56.9974 36.6485L57.0169 36.6574L57.037 36.6646L57.3864 36.7899C57.5129 36.8635 57.615 36.943 57.6934 37.0231L57.7132 37.0433L57.7352 37.0612C57.8173 37.128 57.8895 37.1965 57.9522 37.2657C57.9879 37.3177 58.0082 37.3648 58.0186 37.4054C58.0326 37.4718 58.0322 37.5376 58.0175 37.6041Z" fill="#231F20" stroke="black"/>
</svg>
